<svg id="Layer_1" data-name="Layer 1" xmlns="http://www.w3.org/2000/svg" viewBox="0 0 803.52 439.73"><defs><style>.cls-1{fill:#563a96;}.cls-2{fill:#fff;}</style></defs><title>OFFSupply</title><path class="cls-1" d="M228.53,366.87c22.33,51.67,109.3,71.58,202.24,44.77S581,347,575.62,282.55c-1.79-21.34-32.2-83.57-55.45-142C502.48,96,495.58,53.18,469.77,35.18c-29.39-20.51-102,52.28-126.42,76.25C274.28,179.15,182.87,261.2,228.53,366.87Z"/><path class="cls-1" d="M280.62,260.73c1.7-6.38,3.26-12.81,5.16-19.14,3.23-10.78,7.28-21.29,13.32-30.81,9.12-14.39,21-26,36.21-34.06,7.63-4,10.25-.49,10.31,6.18a24.29,24.29,0,0,0,10.13,20,41,41,0,0,0,26,8.32,3.36,3.36,0,0,0,3.38-2.07c2.05-4.2,4.15-8.39,6.54-12.41a8.06,8.06,0,0,1,3.88-3.33c11.72-4.09,23.63-7.48,36-9.12a9.17,9.17,0,0,1,10.38,11.46c-2.38,9-3.51,18.06-2.31,27.29a68,68,0,0,0,2.28,8.92,51.45,51.45,0,0,1,6.83,1.16c.72.23,1.33,1.53,1.58,2.45.72,2.71-.52,4.44-4.42,6.2.81,2.22,1.63,4.48,2.44,6.68,4.45-.64,6.37,0,7.35,2.5,1,2.61.09,4.35-3.8,6.85.5,1.4,1,2.83,1.54,4.25.26.7.57,1.4.85,2.07,5-.54,6.75.06,7.64,2.54.94,2.65-.09,4.41-4.14,6.86.71,1.92,1.44,3.88,2,5.43a35.18,35.18,0,0,1,6.06-.2c.86.11,1.82,1.25,2.31,2.14,1.45,2.61.56,4-5,8.05,1.07,1.69,2,3.52,3.28,5.14,3.7,4.84,8.74,7.45,14.56,9.14,7.73,2.25,15.35,5,22.93,7.7,1.69.61,3.81,1.93,4.38,3.44a44.76,44.76,0,0,1,3.07,20.76c-.9,7.91-5.88,13.48-13.08,16.35-5.05,2-10.57,3-16,4-9,1.54-18,2.65-27,3.94a44.84,44.84,0,0,1-26.74-4.57c-13.69-6.83-27.1-14.23-40.63-21.37-23-12.15-46-24.37-69-36.41a112.31,112.31,0,0,1-38.29-32.7ZM455,292.81c-4.8,2-7.17,1.73-8.6-.88-1.52-2.77-.62-4.25,5.17-8.29l-2.44-6.5c-6.06,1.78-8.3,1.55-9.26-1.27-1.75-5.17,2.52-6.21,5.91-7.7l-2.81-7.43c-1.67.55-3.17,1.16-4.72,1.53a4.6,4.6,0,0,1-2.85-8.73c1.37-.62,2.8-1.12,4.28-1.7-.94-2.44-1.81-4.7-2.67-7-6,2-8.39,1.8-9.48-1-2.18-5.64,2.8-6.25,6.16-7.9-1.2-3.23-2.52-6.2-3.4-9.29-1-3.56-3.37-5.54-6.59-6.87a35.71,35.71,0,0,0-27.8-.33c-6.78,2.69-13.58,5.37-20.49,7.73-14.26,4.87-28.07,4.53-41-4.23a77.4,77.4,0,0,1-17-16.43c-.54-.69-1.12-1.36-1.75-2.12a60.38,60.38,0,0,0-12.05,17.82,8.93,8.93,0,0,0,1,.59,63.43,63.43,0,0,1,27.05,20.71c4.73,6.18,8.53,13.08,12.66,19.72,5.07,8.16,10.56,15.91,19.36,20.55,4.88,2.57,9.75,5.2,14.69,7.67,5.29,2.64,10.78,4.43,16.88,4.11a29.81,29.81,0,0,1,9.07.89c8.66,2.29,15.34,7.58,20.43,14.84,5.57,7.93,12.33,14.52,20.93,19.07a5.76,5.76,0,0,0,4,.42,71.59,71.59,0,0,1,24.1-3.5c6.47.23,12.95.08,19.42-.14a32.88,32.88,0,0,0,6.7-1.34,2.27,2.27,0,0,0,1.47-1.2c.66-2.13-1.15-5.25-3.32-6q-13.89-4.67-27.77-9.35a8.13,8.13,0,0,1-3.36-1.68C462.63,303,456.76,299.63,455,292.81ZM299.51,230.9a157.52,157.52,0,0,0-9,29.71,3,3,0,0,0,.79,2c6.62,8.35,14.21,15.74,23.4,21.1,11.37,6.64,23.08,12.7,34.71,18.88q40.41,21.49,80.9,42.84a40,40,0,0,0,24.16,4.68c9.35-1.24,18.68-2.67,28-4,5.33-.74,10.6-1.63,15.12-4.88a9.87,9.87,0,0,0,4.2-5.95,24,24,0,0,1-3.08.6c-8.15.34-16.32,1-24.46.84a66.14,66.14,0,0,0-24.73,4.06,6.91,6.91,0,0,1-6.05-.58,78.06,78.06,0,0,1-28.25-25.27c-5-7.16-12-11.21-21.18-10.19a30.14,30.14,0,0,1-17-3.48c-6.23-3.12-12.44-6.28-18.55-9.64a47.48,47.48,0,0,1-7.53-5.22c-8.08-6.72-13.41-15.54-18.28-24.65a72.36,72.36,0,0,0-15-19.27A54.66,54.66,0,0,0,299.51,230.9Zm68.4-11.64c-16.31-5-28.53-13.83-30.89-32.95l-15,10.92c5.58,7.59,11.35,14.14,18.93,18.86C349.42,221.35,358.4,222.2,367.91,219.26Zm64.57-25.56a14.28,14.28,0,0,0-2.36.19c-9,2.26-18,4.72-27.11,6.76-4,.91-5.14,3.78-6.45,7.13,11.45-.71,22.62-.9,33.09,4.14C430.6,205.81,431.52,199.87,432.48,193.7Z"/><path class="cls-2" d="M455,292.81c1.81,6.82,7.68,10.14,11.91,14.8a8.13,8.13,0,0,0,3.36,1.68Q484.1,314,498,318.64c2.17.73,4,3.85,3.32,6a2.27,2.27,0,0,1-1.47,1.2,32.88,32.88,0,0,1-6.7,1.34c-6.47.22-12.95.37-19.42.14a71.59,71.59,0,0,0-24.1,3.5,5.76,5.76,0,0,1-4-.42c-8.6-4.55-15.36-11.14-20.93-19.07-5.09-7.26-11.77-12.55-20.43-14.84a29.81,29.81,0,0,0-9.07-.89c-6.1.32-11.59-1.47-16.88-4.11-4.94-2.47-9.81-5.1-14.69-7.67-8.8-4.64-14.29-12.39-19.36-20.55-4.13-6.64-7.93-13.54-12.66-19.72a63.43,63.43,0,0,0-27.05-20.71,8.93,8.93,0,0,1-1-.59,60.38,60.38,0,0,1,12.05-17.82c.63.76,1.21,1.43,1.75,2.12a77.4,77.4,0,0,0,17,16.43c12.91,8.76,26.72,9.1,41,4.23,6.91-2.36,13.71-5,20.49-7.73a35.71,35.71,0,0,1,27.8.33c3.22,1.33,5.58,3.31,6.59,6.87.88,3.09,2.2,6.06,3.4,9.29-3.36,1.65-8.34,2.26-6.16,7.9,1.09,2.84,3.51,3,9.48,1,.86,2.25,1.73,4.51,2.67,7-1.48.58-2.91,1.08-4.28,1.7a4.6,4.6,0,0,0,2.85,8.73c1.55-.37,3.05-1,4.72-1.53l2.81,7.43c-3.39,1.49-7.66,2.53-5.91,7.7,1,2.82,3.2,3.05,9.26,1.27l2.44,6.5c-5.79,4-6.69,5.52-5.17,8.29C447.78,294.54,450.15,294.84,455,292.81Z"/><path class="cls-2" d="M299.51,230.9a54.66,54.66,0,0,1,18.25,11.56,72.36,72.36,0,0,1,15,19.27c4.87,9.11,10.2,17.93,18.28,24.65a47.48,47.48,0,0,0,7.53,5.22c6.11,3.36,12.32,6.52,18.55,9.64a30.14,30.14,0,0,0,17,3.48c9.22-1,16.2,3,21.18,10.19a78.06,78.06,0,0,0,28.25,25.27,6.91,6.91,0,0,0,6.05.58,66.14,66.14,0,0,1,24.73-4.06c8.14.17,16.31-.5,24.46-.84a24,24,0,0,0,3.08-.6,9.87,9.87,0,0,1-4.2,5.95c-4.52,3.25-9.79,4.14-15.12,4.88-9.34,1.31-18.67,2.74-28,4a40,40,0,0,1-24.16-4.68q-40.52-21.28-80.9-42.84c-11.63-6.18-23.34-12.24-34.71-18.88-9.19-5.36-16.78-12.75-23.4-21.1a3,3,0,0,1-.79-2A157.52,157.52,0,0,1,299.51,230.9Z"/><path class="cls-2" d="M367.91,219.26c-9.51,2.94-18.49,2.09-26.92-3.17-7.58-4.72-13.35-11.27-18.93-18.86l15-10.92C339.38,205.43,351.6,214.26,367.91,219.26Z"/><path class="cls-2" d="M432.48,193.7c-1,6.17-1.88,12.11-2.83,18.22-10.47-5-21.64-4.85-33.09-4.14,1.31-3.35,2.43-6.22,6.45-7.13,9.09-2,18.07-4.5,27.11-6.76A14.28,14.28,0,0,1,432.48,193.7Z"/></svg>