<svg id="Layer_1" data-name="Layer 1" xmlns="http://www.w3.org/2000/svg" viewBox="0 0 803.52 439.73"><defs><style>.cls-1{fill:#fff;}.cls-2{fill:#563a96;}</style></defs><title>OFFSupply</title><path class="cls-1" d="M211.53,359.17c22.33,51.67,109.3,71.58,202.25,44.77S564,339.33,558.62,274.85c-1.79-21.35-32.2-83.57-55.45-142-17.69-44.49-24.58-87.33-50.39-105.33-29.4-20.5-102,52.29-126.42,76.25C257.29,171.45,165.87,253.5,211.53,359.17Z"/><path class="cls-2" d="M470.11,255.55a21.75,21.75,0,0,0,.67,7.63,52.93,52.93,0,0,0,2.49,7.14c1,2.32,1.93,4.71,2.82,7.14a46.36,46.36,0,0,1,2,7.3,39,39,0,0,1,0,10.13,57.88,57.88,0,0,1-2.32,10.62,39.94,39.94,0,0,1-4.32,9.3,17.48,17.48,0,0,1-6.31,6.14,32.52,32.52,0,0,1-11.29,9.29,65.3,65.3,0,0,0-12.28,8,25.19,25.19,0,0,1-8.13,3.32c-3,.67-6,1.33-9.13,2q-3.66,2-8.63,4.15c-3.32,1.45-6.76,2.77-10.3,4a61.55,61.55,0,0,1-10.62,2.65,38.86,38.86,0,0,1-9.29.5A88,88,0,0,1,366,359.63q-9.45,1.15-22.07-1.5a56.2,56.2,0,0,1-22.08-1A51.83,51.83,0,0,1,304,348.67a62.57,62.57,0,0,1-13.61-13.94,83.47,83.47,0,0,1-9.46-17.1q-2.67-18.93,1.33-34.36a115.62,115.62,0,0,1,11.45-28.55,151.75,151.75,0,0,1,17.1-24.24q9.62-11.11,18.59-21.74a3.41,3.41,0,0,0,3.15-.17,8.69,8.69,0,0,0,2.16-2.32,25,25,0,0,1,2.16-2.82,5,5,0,0,1,2.82-1.67,16.06,16.06,0,0,1,6.81-7.47,18.44,18.44,0,0,0,7.13-7.13,14.37,14.37,0,0,0,5-2,31.47,31.47,0,0,0,3.82-3q1.83-1.67,3.82-3.16a12.83,12.83,0,0,1,4.65-2.15v-3.66q6-2.66,8.8-6.14c1.87-2.32,4.15-5.14,6.8-8.46a46.42,46.42,0,0,1,4.82-.34,32.84,32.84,0,0,0,5.47-.66,38.18,38.18,0,0,1,4.82-7,31,31,0,0,1,6.47-5,28,28,0,0,0,8.8,2.65,14.62,14.62,0,0,1,8.46,4.32,8.73,8.73,0,0,0,2,5.15,25.62,25.62,0,0,0,3.65,3.32q2,1.49,3.82,3.15a8.64,8.64,0,0,1,2.48,4.65q1.33.33,1.83-.33c.33-.45.94-.55,1.83-.34.66,3.11,1.43,5.15,2.32,6.15a16.94,16.94,0,0,1,2.66,5.81,31.11,31.11,0,0,0-2.49,6.8,7.52,7.52,0,0,1-4.15,5.15c-.23,1.55.21,2.38,1.33,2.49a2.09,2.09,0,0,1,2,1.82c.22,2-.12,3.44-1,4.32a221.47,221.47,0,0,1,14.28,27.39A220.07,220.07,0,0,0,470.11,255.55Zm-41.5,31.54a17.43,17.43,0,0,1,3.49-6q2.16-2.33,2.49-7a14.79,14.79,0,0,1-2-4.15,24.07,24.07,0,0,1-.33-4.82,129.74,129.74,0,0,1-12.62-22.07A168.3,168.3,0,0,0,407.7,221a8.42,8.42,0,0,1-2.33,2.66c-1.11.88-2.32.66-3.65-.67a6.28,6.28,0,0,1-2.32,3.82,5.4,5.4,0,0,1-3.65,1,14.73,14.73,0,0,1-4.15-1,13.79,13.79,0,0,1-3.82-2.16q-9.63,7.64-19.26,14.94a96.33,96.33,0,0,0-17.26,16.93c-.89.45-1.44.62-1.66.5s-.89.06-2,.5A54.91,54.91,0,0,1,341.13,269q-3.81,5.16-7.47,10.46a70.18,70.18,0,0,0-6.3,11.29,37.79,37.79,0,0,0-3,13.94,25.66,25.66,0,0,0,13.28,5.65,75.12,75.12,0,0,0,15.77.33,152.66,152.66,0,0,0,15.93-2.16A76.81,76.81,0,0,1,383.8,307a95.09,95.09,0,0,0,23.9-8.79Q417.66,292.74,428.61,287.09Z"/></svg>