<svg id="Layer_1" data-name="Layer 1" xmlns="http://www.w3.org/2000/svg" viewBox="0 0 803.52 439.73"><defs><style>.cls-1{fill:#563a96;}.cls-2{fill:#fff;}</style></defs><title>OFFSupply</title><path class="cls-1" d="M234.18,347.2c22.33,51.67,109.3,71.58,202.24,44.77s150.25-64.6,144.85-129.09c-1.79-21.35-32.2-83.57-55.45-142-17.69-44.49-24.59-87.33-50.4-105.33C446-5,373.45,67.79,349,91.76,279.93,159.48,188.52,241.53,234.18,347.2Z"/><path class="cls-2" d="M492.76,243.58a22,22,0,0,0,.66,7.64,56.39,56.39,0,0,0,2.49,7.14q1.5,3.48,2.83,7.13a46.18,46.18,0,0,1,2,7.31,38.89,38.89,0,0,1,0,10.12,56.91,56.91,0,0,1-2.33,10.62,39.73,39.73,0,0,1-4.31,9.3,17.56,17.56,0,0,1-6.31,6.14,32.55,32.55,0,0,1-11.29,9.3,64.49,64.49,0,0,0-12.28,8,25.42,25.42,0,0,1-8.13,3.32l-9.14,2q-3.65,2-8.63,4.15t-10.29,4a61.59,61.59,0,0,1-10.62,2.66,40,40,0,0,1-9.3.5,87.87,87.87,0,0,1-19.42,4.81q-9.46,1.15-22.08-1.49a56.16,56.16,0,0,1-22.07-1,51.38,51.38,0,0,1-17.93-8.47A62.35,62.35,0,0,1,313,322.76a83,83,0,0,1-9.46-17.1q-2.67-18.92,1.32-34.36a116.19,116.19,0,0,1,11.46-28.55,150.58,150.58,0,0,1,17.1-24.23Q343,207.39,352,196.77a3.35,3.35,0,0,0,3.15-.17,8.86,8.86,0,0,0,2.16-2.32,26,26,0,0,1,2.16-2.82,5,5,0,0,1,2.82-1.66,16,16,0,0,1,6.8-7.47,18.42,18.42,0,0,0,7.14-7.14,14.53,14.53,0,0,0,5-2,31.56,31.56,0,0,0,3.82-3c1.21-1.1,2.49-2.16,3.82-3.15a12.77,12.77,0,0,1,4.65-2.16v-3.65a23.27,23.27,0,0,0,8.79-6.14q2.82-3.5,6.81-8.47a45.8,45.8,0,0,1,4.81-.33,33.08,33.08,0,0,0,5.48-.67,39.1,39.1,0,0,1,4.81-7,32.08,32.08,0,0,1,6.48-5,27.9,27.9,0,0,0,8.79,2.66,14.63,14.63,0,0,1,8.47,4.31,8.67,8.67,0,0,0,2,5.15,26.75,26.75,0,0,0,3.65,3.32q2,1.5,3.82,3.15a8.59,8.59,0,0,1,2.49,4.65c.88.23,1.5.12,1.83-.33s.94-.55,1.82-.33c.67,3.1,1.44,5.14,2.33,6.14a17,17,0,0,1,2.65,5.81A31.19,31.19,0,0,0,466,175a7.47,7.47,0,0,1-4.14,5.14q-.34,2.33,1.32,2.49a2.08,2.08,0,0,1,2,1.83c.22,2-.11,3.43-1,4.31a220.77,220.77,0,0,1,14.27,27.39A221.47,221.47,0,0,0,492.76,243.58Zm-41.5,31.54a17.36,17.36,0,0,1,3.49-6q2.14-2.31,2.49-7a14.39,14.39,0,0,1-2-4.15,23.78,23.78,0,0,1-.34-4.81,130.85,130.85,0,0,1-12.61-22.08,170,170,0,0,0-11.95-22.07,8.4,8.4,0,0,1-2.33,2.65c-1.11.89-2.32.66-3.65-.66a6.38,6.38,0,0,1-2.32,3.82,5.45,5.45,0,0,1-3.66,1,15.22,15.22,0,0,1-4.15-1,14.41,14.41,0,0,1-3.81-2.16q-9.65,7.64-19.26,14.94a96,96,0,0,0-17.26,16.93c-.89.44-1.44.61-1.66.5s-.89,0-2,.49A55.44,55.44,0,0,1,363.78,257c-2.55,3.43-5,6.92-7.47,10.45A70.32,70.32,0,0,0,350,278.77a37.85,37.85,0,0,0-3,14,25.65,25.65,0,0,0,13.28,5.64,74.45,74.45,0,0,0,15.77.33A147.49,147.49,0,0,0,392,296.53,77.57,77.57,0,0,1,406.44,295a95.41,95.41,0,0,0,23.91-8.8Q440.31,280.77,451.26,275.12Z"/></svg>