<svg id="Layer_1" data-name="Layer 1" xmlns="http://www.w3.org/2000/svg" viewBox="0 0 803.52 439.73"><defs><style>.cls-1{fill:#563a96;}.cls-2{fill:none;}.cls-3{fill:#fff;}</style></defs><title>OFFSupply</title><path class="cls-1" d="M219.37,366.87c22.33,51.67,109.3,71.58,202.25,44.77S571.86,347,566.46,282.55c-1.79-21.34-32.2-83.57-55.45-142C493.32,96,486.43,53.18,460.62,35.18c-29.4-20.51-102,52.28-126.42,76.25C265.13,179.15,173.71,261.2,219.37,366.87Z"/><path class="cls-2" d="M718.52,307.14c-8.65,0-15.66,8-15.64,17.76s7.22,17.67,15.8,17.58,15.82-8.25,15.78-17.78S727.12,307.14,718.52,307.14Z"/><path class="cls-3" d="M279.44,186.28c1.92-.7,3.82-2,5.74-2,9.38-.21,18.76,0,28.13-.16,4.08-.08,5.63,1.92,6.39,5.49q11.18,52.76,22.42,105.48c0,.18,0,.36.07.53,3.2,14.87,4.59,16,19.58,16h103c8.56,0,11.08-1.5,13.06-9.93,2.94-12.52,5-25.23,7.88-37.76.69-3-.36-8.89,5.62-7.45,5.34,1.29,2.42,5.69,1.81,8.83-2.45,12.63-4.72,25.3-7.67,37.82-2.88,12.22-8.14,16.17-20.56,16.2q-53.88.14-107.75,0c-13,0-18.37-4.27-21.31-17.42-5.89-26.31-11.43-52.69-17.11-79-2.19-10.16-4.36-20.31-6.64-31-8.81,0-17.46.16-26.08-.11-2.21-.07-4.37-1.52-6.56-2.33Z"/><path class="cls-3" d="M414.27,287.44H365.5c-2.83,0-6.29.31-6.19-3.78.1-3.76,3.25-3.92,6.27-3.92q49.29.06,98.6,0c3,0,6.18.23,6.21,4,0,4-3.44,3.73-6.29,3.73Z"/><path class="cls-3" d="M450.73,367.09A19.3,19.3,0,0,1,431,347.3a19.71,19.71,0,0,1,19.4-19.72,20.21,20.21,0,0,1,20.14,19.73A19.62,19.62,0,0,1,450.73,367.09Zm-.12-7.69a12,12,0,0,0,12.14-12,12.18,12.18,0,0,0-12.24-12,12,12,0,0,0-11.76,11.84A11.79,11.79,0,0,0,450.61,359.4Z"/><path class="cls-3" d="M371.15,367.09a19.28,19.28,0,0,1-19.76-19.71,19.65,19.65,0,0,1,19.84-19.8,20.27,20.27,0,0,1,19.71,19.63A19.64,19.64,0,0,1,371.15,367.09Zm.08-7.68a12.17,12.17,0,0,0,11.93-12.27,12.32,12.32,0,0,0-12-11.74,12.05,12.05,0,0,0-12,12.11A11.8,11.8,0,0,0,371.23,359.41Z"/><path class="cls-3" d="M403,255.6H356.82c-2.56,0-5.26,0-5.3-3.59s2.54-4.18,5.46-4.1c.88,0,1.77,0,2.65,0h86.53c1.24,0,2.72-.43,3.66.11a33.23,33.23,0,0,1,4.75,3.87c-1.62,1.23-3.19,3.45-4.86,3.54-7.76.38-15.56.18-23.35.18S410.79,255.6,403,255.6Z"/><path class="cls-3" d="M386.18,223.77H349.56c-2.91,0-6.26.12-6.15-3.89.1-3.82,3.32-3.87,6.3-3.87q37.16,0,74.3,0h1.59c2.85,0,5.35,1.08,4.54,4.21-.38,1.47-3,3.32-4.69,3.36C412.36,223.89,399.27,223.77,386.18,223.77Z"/></svg>