<svg id="Layer_1" data-name="Layer 1" xmlns="http://www.w3.org/2000/svg" viewBox="0 0 803.52 439.73"><defs><style>.cls-1{fill:#563a96;}</style></defs><title>OFFSupply</title><path class="cls-1" d="M234.18,359.17c22.33,51.67,109.3,71.58,202.24,44.77s150.25-64.61,144.85-129.09c-1.79-21.35-32.2-83.57-55.45-142-17.69-44.49-24.59-87.33-50.4-105.33C446,7,373.45,79.76,349,103.72,279.93,171.45,188.52,253.5,234.18,359.17Z"/><path d="M492.76,255.55a22,22,0,0,0,.66,7.63,55.85,55.85,0,0,0,2.49,7.14c1,2.32,1.94,4.71,2.83,7.14a46.36,46.36,0,0,1,2,7.3,39,39,0,0,1,0,10.13,57.09,57.09,0,0,1-2.33,10.62,39.92,39.92,0,0,1-4.31,9.3,17.64,17.64,0,0,1-6.31,6.14,32.52,32.52,0,0,1-11.29,9.29,65,65,0,0,0-12.28,8,25.19,25.19,0,0,1-8.13,3.32q-4.49,1-9.14,2-3.65,2-8.63,4.15c-3.32,1.45-6.75,2.77-10.29,4a61.55,61.55,0,0,1-10.62,2.65,38.91,38.91,0,0,1-9.3.5,87.91,87.91,0,0,1-19.42,4.82q-9.46,1.15-22.08-1.5a56.16,56.16,0,0,1-22.07-1,51.74,51.74,0,0,1-17.93-8.47A62.57,62.57,0,0,1,313,334.73a83.47,83.47,0,0,1-9.46-17.1q-2.67-18.93,1.32-34.36a116,116,0,0,1,11.46-28.55,151.11,151.11,0,0,1,17.1-24.24Q343,219.37,352,208.74a3.41,3.41,0,0,0,3.15-.17,9,9,0,0,0,2.16-2.32,25,25,0,0,1,2.16-2.82,5,5,0,0,1,2.82-1.67,16,16,0,0,1,6.8-7.47,18.39,18.39,0,0,0,7.14-7.13,14.54,14.54,0,0,0,5-2,31.47,31.47,0,0,0,3.82-3c1.21-1.11,2.49-2.16,3.82-3.16a12.76,12.76,0,0,1,4.65-2.15v-3.66q6-2.66,8.79-6.14t6.81-8.46a46.26,46.26,0,0,1,4.81-.34,32.81,32.81,0,0,0,5.48-.66,38.73,38.73,0,0,1,4.81-7,31.37,31.37,0,0,1,6.48-5,27.89,27.89,0,0,0,8.79,2.65,14.65,14.65,0,0,1,8.47,4.32,8.73,8.73,0,0,0,2,5.15,26.75,26.75,0,0,0,3.65,3.32q2,1.49,3.82,3.15a8.59,8.59,0,0,1,2.49,4.65c.88.22,1.5.11,1.83-.33s.94-.55,1.82-.34c.67,3.11,1.44,5.15,2.33,6.15a16.78,16.78,0,0,1,2.65,5.81A31.11,31.11,0,0,0,466,187a7.5,7.5,0,0,1-4.14,5.15q-.34,2.33,1.32,2.49a2.07,2.07,0,0,1,2,1.82c.22,2-.11,3.44-1,4.32a220.07,220.07,0,0,1,14.27,27.39A221.47,221.47,0,0,0,492.76,255.55Zm-41.5,31.54a17.27,17.27,0,0,1,3.49-6q2.14-2.33,2.49-7a14.51,14.51,0,0,1-2-4.15,23.89,23.89,0,0,1-.34-4.82A130.37,130.37,0,0,1,442.3,243.1,169.49,169.49,0,0,0,430.35,221a8.42,8.42,0,0,1-2.33,2.66c-1.11.88-2.32.66-3.65-.67a6.32,6.32,0,0,1-2.32,3.82,5.41,5.41,0,0,1-3.66,1,14.89,14.89,0,0,1-4.15-1,13.88,13.88,0,0,1-3.81-2.16q-9.65,7.64-19.26,14.94a96.33,96.33,0,0,0-17.26,16.93c-.89.45-1.44.62-1.66.5s-.89.06-2,.5A55.36,55.36,0,0,1,363.78,269c-2.55,3.44-5,6.92-7.47,10.46A69.47,69.47,0,0,0,350,290.74a37.8,37.8,0,0,0-3,13.94,25.66,25.66,0,0,0,13.28,5.65,75.12,75.12,0,0,0,15.77.33A152.66,152.66,0,0,0,392,308.5a76.79,76.79,0,0,1,14.44-1.5,95,95,0,0,0,23.91-8.79Q440.31,292.74,451.26,287.09Z"/></svg>