<svg id="Layer_1" data-name="Layer 1" xmlns="http://www.w3.org/2000/svg" viewBox="0 0 803.52 439.73"><defs><style>.cls-1{fill:#563a96;}.cls-2{fill:#fff;}</style></defs><title>OFFSupply</title><path class="cls-1" d="M234.18,366.87c22.33,51.67,109.3,71.58,202.24,44.77S586.67,347,581.27,282.55c-1.79-21.34-32.2-83.57-55.45-142C508.13,96,501.23,53.18,475.42,35.18,446,14.67,373.45,87.46,349,111.43,279.93,179.15,188.52,261.2,234.18,366.87Z"/><path class="cls-2" d="M295,214.16c2.08-1.56,4-3.46,6.28-4.61q30.68-15.48,61.46-30.73c7.38-3.67,10.5-1.91,11.19,6.15a27.86,27.86,0,0,0,28.29,25.42A28.23,28.23,0,0,0,430,184.3c.45-7,3.88-9.06,10.27-5.88q31.47,15.69,62.87,31.49c5.63,2.83,6.33,4.47,4.44,10.29q-4.77,14.67-9.7,29.29c-1.92,5.68-4.05,6.68-9.84,4.8-7.87-2.55-15.73-5.15-24.32-8v5.86q0,47.49,0,95c0,14.39-6.33,20.8-20.63,20.81q-41.23,0-82.48,0c-14.25,0-20.6-6.47-20.6-20.87q0-47.24,0-94.49v-6.27c-7.75,2.55-15.07,4.94-22.37,7.35-8.26,2.73-9.62,2-12.4-6.06-3.37-9.84-6.82-19.66-10.23-29.48Zm20.41,28.61c8.82-3,17-5.73,25.13-8.46,8-2.67,10.49-.89,10.49,7.37q0,52.74,0,105.47c0,8,1.74,9.74,9.6,9.74h82.48c7.89,0,9.56-1.72,9.56-9.78q0-52,0-104a46.12,46.12,0,0,1,.12-5c.42-4,2.91-5.44,6.62-4.91a28.52,28.52,0,0,1,4.74,1.48l24.21,8,7.93-23.86L440.59,191c-8.14,20.45-20.14,30.23-37.67,30.34-20.7.12-33.18-11.11-39.76-30.35l-55.7,27.86C310.1,226.79,312.65,234.45,315.41,242.77Z"/><path class="cls-1" d="M315.41,242.77c-2.76-8.32-5.31-16-8-23.93L363.16,191c6.58,19.24,19.06,30.47,39.76,30.35,17.53-.11,29.53-9.89,37.67-30.34l55.72,27.85-7.93,23.86-24.21-8a28.52,28.52,0,0,0-4.74-1.48c-3.71-.53-6.2.94-6.62,4.91a46.12,46.12,0,0,0-.12,5q0,52,0,104c0,8.06-1.67,9.78-9.56,9.78H360.64c-7.86,0-9.6-1.79-9.6-9.74q0-52.72,0-105.47c0-8.26-2.53-10-10.49-7.37C332.38,237,324.23,239.8,315.41,242.77Z"/></svg>